<svg width="40" height="40" viewBox="0 0 40 40" xmlns="http://www.w3.org/2000/svg">
  <rect x="2" y="2" width="36" height="36" rx="9" fill="#FFFFFF"/>
  <path transform="matrix(0.00835 0 0 -0.00835 8.0540 20.0000)" fill="#2F7DE1" d="M387 467 L387 1331 L90 1331 L90 1556 L680 1556 L680 467 Q680 335 721 280 Q762 225 860 225 L1094 225 L1094 0 L778 0 Q569 0 478 108 Q387 216 387 467 Z"/>
  <path transform="matrix(0.00835 0 0 -0.00835 21.2686 20.0000)" fill="#E5484D" d="M174 1556 L467 1556 L467 739 L819 1120 L1174 1120 L750 702 L1198 0 L874 0 L567 524 L467 428 L467 0 L174 0 L174 1556 Z"/>
  <path transform="matrix(0.01133 0 0 -0.01133 5.9900 34.5000)" fill="#F5B301" d="M690 1008 Q723 1079 774 1113 Q825 1147 899 1147 Q1044 1147 1099 1047 Q1155 947 1155 631 L1155 0 L915 0 L915 719 Q915 844 896 886 Q877 928 827 928 Q777 928 757 885 Q737 842 737 719 L737 0 L500 0 L500 719 Q500 842 480 885 Q460 928 410 928 Q360 928 341 886 Q322 844 322 719 L322 0 L82 0 L82 1120 L295 1120 L295 1004 Q320 1070 375 1108 Q430 1147 498 1147 Q566 1147 622 1106 Q678 1066 690 1008 Z"/>
  <path transform="matrix(0.00835 0 0 -0.00835 22.0540 34.5000)" fill="#2FA25A" d="M387 467 L387 1331 L90 1331 L90 1556 L680 1556 L680 467 Q680 335 721 280 Q762 225 860 225 L1094 225 L1094 0 L778 0 Q569 0 478 108 Q387 216 387 467 Z"/>
</svg>
